<svg width="17" height="14" viewBox="0 0 17 14" xmlns="http://www.w3.org/2000/svg">
<path fill-rule="evenodd" clip-rule="evenodd" d="M0 1C0 0.447715 0.321692 0 0.71852 0H16.2815C16.6783 0 17 0.447715 17 1C17 1.55228 16.6783 2 16.2815 2H0.71852C0.321692 2 0 1.55228 0 1Z" fill="currentColor"/>
<path fill-rule="evenodd" clip-rule="evenodd" d="M0 13C0 12.4477 0.321692 12 0.71852 12H16.2815C16.6783 12 17 12.4477 17 13C17 13.5523 16.6783 14 16.2815 14H0.71852C0.321692 14 0 13.5523 0 13Z" fill="currentColor"/>
<path fill-rule="evenodd" clip-rule="evenodd" d="M0 7C0 6.44772 0.318515 6 0.711423 6H8.28858C8.68149 6 9 6.44772 9 7C9 7.55228 8.68149 8 8.28858 8H0.711423C0.318515 8 0 7.55228 0 7Z" fill="currentColor"/>
</svg>
